<mxfile host="app.diagrams.net" agent="Mozilla/5.0 (X11; Ubuntu; Linux x86_64; rv:139.0) Gecko/20100101 Firefox/139.0" scale="1" border="0" version="28.0.4">
  <diagram name="Page-1" id="lqh_Il7PUDTA4zO0Oj97">
    <mxGraphModel dx="1332" dy="968" grid="0" gridSize="10" guides="1" tooltips="1" connect="1" arrows="1" fold="1" page="0" pageScale="1" pageWidth="850" pageHeight="1100" math="0" shadow="0">
      <root>
        <mxCell id="0" />
        <mxCell id="1" parent="0" />
        <mxCell id="Nd5IJ-L-UjgMi4WhHVAJ-4" style="edgeStyle=none;curved=1;rounded=0;orthogonalLoop=1;jettySize=auto;html=1;entryX=1;entryY=0.5;entryDx=0;entryDy=0;fontSize=16;startSize=8;endSize=8;" parent="1" edge="1">
          <mxGeometry relative="1" as="geometry">
            <mxPoint x="34" y="88" as="sourcePoint" />
            <mxPoint x="34" y="88" as="targetPoint" />
          </mxGeometry>
        </mxCell>
        <mxCell id="Nd5IJ-L-UjgMi4WhHVAJ-5" value="&lt;font style=&quot;font-size: 20px;&quot;&gt;B&lt;/font&gt;" style="ellipse;whiteSpace=wrap;html=1;fontSize=16;fillColor=#f5f5f5;fontColor=#333333;strokeColor=#666666;" parent="1" vertex="1">
          <mxGeometry x="73" y="-143" width="60" height="60" as="geometry" />
        </mxCell>
        <mxCell id="Nd5IJ-L-UjgMi4WhHVAJ-8" value="" style="ellipse;whiteSpace=wrap;html=1;fontSize=16;fillColor=#f8cecc;strokeColor=#b85450;" parent="1" vertex="1">
          <mxGeometry x="16" y="-22" width="60" height="60" as="geometry" />
        </mxCell>
        <mxCell id="Nd5IJ-L-UjgMi4WhHVAJ-14" value="" style="edgeStyle=none;curved=1;rounded=0;orthogonalLoop=1;jettySize=auto;html=1;fontSize=16;startSize=8;endSize=8;endArrow=none;endFill=0;entryX=0.5;entryY=0;entryDx=0;entryDy=0;" parent="1" source="Nd5IJ-L-UjgMi4WhHVAJ-5" target="Nd5IJ-L-UjgMi4WhHVAJ-8" edge="1">
          <mxGeometry relative="1" as="geometry">
            <mxPoint x="247" y="-90" as="sourcePoint" />
            <mxPoint x="46" y="-41" as="targetPoint" />
          </mxGeometry>
        </mxCell>
        <mxCell id="AVQ2NDTrIzkf_kXeqUEB-1" value="" style="ellipse;whiteSpace=wrap;html=1;fontSize=16;fillColor=#f8cecc;strokeColor=#b85450;" parent="1" vertex="1">
          <mxGeometry x="73" y="-249" width="60" height="60" as="geometry" />
        </mxCell>
        <mxCell id="AVQ2NDTrIzkf_kXeqUEB-5" value="" style="edgeStyle=none;curved=1;rounded=0;orthogonalLoop=1;jettySize=auto;html=1;fontSize=16;startSize=8;endSize=8;endArrow=none;endFill=0;" parent="1" source="AVQ2NDTrIzkf_kXeqUEB-1" target="Nd5IJ-L-UjgMi4WhHVAJ-5" edge="1">
          <mxGeometry relative="1" as="geometry">
            <mxPoint x="97" y="-71" as="sourcePoint" />
            <mxPoint x="69" y="-28" as="targetPoint" />
          </mxGeometry>
        </mxCell>
        <mxCell id="AVQ2NDTrIzkf_kXeqUEB-7" value="" style="ellipse;whiteSpace=wrap;html=1;fontSize=16;fillColor=#f8cecc;strokeColor=#b85450;" parent="1" vertex="1">
          <mxGeometry x="139" y="-22" width="60" height="60" as="geometry" />
        </mxCell>
        <mxCell id="AVQ2NDTrIzkf_kXeqUEB-8" value="" style="edgeStyle=none;curved=1;rounded=0;orthogonalLoop=1;jettySize=auto;html=1;fontSize=16;startSize=8;endSize=8;endArrow=none;endFill=0;entryX=0.5;entryY=0;entryDx=0;entryDy=0;" parent="1" source="Nd5IJ-L-UjgMi4WhHVAJ-5" target="AVQ2NDTrIzkf_kXeqUEB-7" edge="1">
          <mxGeometry relative="1" as="geometry">
            <mxPoint x="98" y="-70" as="sourcePoint" />
            <mxPoint x="71" y="-27" as="targetPoint" />
          </mxGeometry>
        </mxCell>
        <mxCell id="huoUurtpqqZWKAT2L6YX-1" value="&lt;font style=&quot;font-size: 20px;&quot;&gt;C&lt;/font&gt;" style="ellipse;whiteSpace=wrap;html=1;fontSize=16;fillColor=#f5f5f5;fontColor=#333333;strokeColor=#666666;" parent="1" vertex="1">
          <mxGeometry x="186" y="-143" width="60" height="60" as="geometry" />
        </mxCell>
        <mxCell id="huoUurtpqqZWKAT2L6YX-2" value="" style="edgeStyle=none;curved=1;rounded=0;orthogonalLoop=1;jettySize=auto;html=1;fontSize=16;startSize=8;endSize=8;endArrow=none;endFill=0;exitX=1;exitY=0;exitDx=0;exitDy=0;entryX=0.5;entryY=1;entryDx=0;entryDy=0;" parent="1" source="Nd5IJ-L-UjgMi4WhHVAJ-8" target="huoUurtpqqZWKAT2L6YX-1" edge="1">
          <mxGeometry relative="1" as="geometry">
            <mxPoint x="78" y="-79" as="sourcePoint" />
            <mxPoint x="174" y="-78" as="targetPoint" />
          </mxGeometry>
        </mxCell>
        <mxCell id="huoUurtpqqZWKAT2L6YX-4" value="" style="edgeStyle=none;curved=1;rounded=0;orthogonalLoop=1;jettySize=auto;html=1;fontSize=16;startSize=8;endSize=8;endArrow=none;endFill=0;entryX=0.5;entryY=0;entryDx=0;entryDy=0;" parent="1" source="AVQ2NDTrIzkf_kXeqUEB-1" target="huoUurtpqqZWKAT2L6YX-1" edge="1">
          <mxGeometry relative="1" as="geometry">
            <mxPoint x="99" y="-182" as="sourcePoint" />
            <mxPoint x="70" y="-127" as="targetPoint" />
          </mxGeometry>
        </mxCell>
        <mxCell id="huoUurtpqqZWKAT2L6YX-10" value="" style="edgeStyle=none;curved=1;rounded=0;orthogonalLoop=1;jettySize=auto;html=1;fontSize=16;startSize=8;endSize=8;endArrow=none;endFill=0;entryX=1;entryY=0;entryDx=0;entryDy=0;exitX=0.5;exitY=1;exitDx=0;exitDy=0;" parent="1" source="huoUurtpqqZWKAT2L6YX-1" target="AVQ2NDTrIzkf_kXeqUEB-7" edge="1">
          <mxGeometry relative="1" as="geometry">
            <mxPoint x="78" y="-79" as="sourcePoint" />
            <mxPoint x="157" y="-3" as="targetPoint" />
          </mxGeometry>
        </mxCell>
        <mxCell id="huoUurtpqqZWKAT2L6YX-18" style="edgeStyle=none;curved=1;rounded=0;orthogonalLoop=1;jettySize=auto;html=1;entryX=1;entryY=0.5;entryDx=0;entryDy=0;fontSize=16;startSize=8;endSize=8;" parent="1" edge="1">
          <mxGeometry relative="1" as="geometry">
            <mxPoint x="391" y="87" as="sourcePoint" />
            <mxPoint x="391" y="87" as="targetPoint" />
          </mxGeometry>
        </mxCell>
        <mxCell id="p5pKZvlz4i5NCOuKB2SX-1" value="&lt;font style=&quot;font-size: 20px;&quot;&gt;A&lt;/font&gt;" style="ellipse;whiteSpace=wrap;html=1;fontSize=16;fillColor=#f5f5f5;fontColor=#333333;strokeColor=#666666;" vertex="1" parent="1">
          <mxGeometry x="-40" y="-143" width="60" height="60" as="geometry" />
        </mxCell>
        <mxCell id="p5pKZvlz4i5NCOuKB2SX-2" value="" style="edgeStyle=none;curved=1;rounded=0;orthogonalLoop=1;jettySize=auto;html=1;fontSize=16;startSize=8;endSize=8;endArrow=none;endFill=0;exitX=0;exitY=1;exitDx=0;exitDy=0;entryX=0.5;entryY=0;entryDx=0;entryDy=0;" edge="1" parent="1" source="AVQ2NDTrIzkf_kXeqUEB-1" target="p5pKZvlz4i5NCOuKB2SX-1">
          <mxGeometry relative="1" as="geometry">
            <mxPoint x="135" y="-188" as="sourcePoint" />
            <mxPoint x="204" y="-123" as="targetPoint" />
          </mxGeometry>
        </mxCell>
        <mxCell id="p5pKZvlz4i5NCOuKB2SX-3" value="" style="edgeStyle=none;curved=1;rounded=0;orthogonalLoop=1;jettySize=auto;html=1;fontSize=16;startSize=8;endSize=8;endArrow=none;endFill=0;exitX=0.5;exitY=1;exitDx=0;exitDy=0;entryX=0;entryY=0;entryDx=0;entryDy=0;" edge="1" parent="1" source="p5pKZvlz4i5NCOuKB2SX-1" target="Nd5IJ-L-UjgMi4WhHVAJ-8">
          <mxGeometry relative="1" as="geometry">
            <mxPoint x="100" y="-76" as="sourcePoint" />
            <mxPoint x="69" y="-9" as="targetPoint" />
          </mxGeometry>
        </mxCell>
        <mxCell id="p5pKZvlz4i5NCOuKB2SX-5" value="" style="edgeStyle=none;curved=1;rounded=0;orthogonalLoop=1;jettySize=auto;html=1;fontSize=16;startSize=8;endSize=8;endArrow=none;endFill=0;exitX=0;exitY=0;exitDx=0;exitDy=0;entryX=0.5;entryY=1;entryDx=0;entryDy=0;" edge="1" parent="1" source="AVQ2NDTrIzkf_kXeqUEB-7" target="p5pKZvlz4i5NCOuKB2SX-1">
          <mxGeometry relative="1" as="geometry">
            <mxPoint x="77" y="-3" as="sourcePoint" />
            <mxPoint x="201" y="-86" as="targetPoint" />
          </mxGeometry>
        </mxCell>
        <mxCell id="p5pKZvlz4i5NCOuKB2SX-6" value="" style="endArrow=classic;html=1;rounded=0;entryX=0.5;entryY=1;entryDx=0;entryDy=0;horizontal=1;exitX=0.5;exitY=0;exitDx=0;exitDy=0;" edge="1" parent="1" source="p5pKZvlz4i5NCOuKB2SX-9" target="Nd5IJ-L-UjgMi4WhHVAJ-8">
          <mxGeometry width="50" height="50" relative="1" as="geometry">
            <mxPoint x="46" y="98" as="sourcePoint" />
            <mxPoint x="86" y="65" as="targetPoint" />
          </mxGeometry>
        </mxCell>
        <mxCell id="p5pKZvlz4i5NCOuKB2SX-7" value="" style="endArrow=classic;html=1;rounded=0;entryX=0.5;entryY=1;entryDx=0;entryDy=0;exitX=0.5;exitY=0;exitDx=0;exitDy=0;" edge="1" parent="1" source="p5pKZvlz4i5NCOuKB2SX-10" target="AVQ2NDTrIzkf_kXeqUEB-7">
          <mxGeometry width="50" height="50" relative="1" as="geometry">
            <mxPoint x="168.51999999999998" y="98" as="sourcePoint" />
            <mxPoint x="168.51999999999998" y="38" as="targetPoint" />
          </mxGeometry>
        </mxCell>
        <mxCell id="p5pKZvlz4i5NCOuKB2SX-8" value="" style="endArrow=classic;html=1;rounded=0;entryX=0.5;entryY=1;entryDx=0;entryDy=0;exitX=0.5;exitY=0;exitDx=0;exitDy=0;" edge="1" parent="1" source="AVQ2NDTrIzkf_kXeqUEB-1" target="p5pKZvlz4i5NCOuKB2SX-39">
          <mxGeometry width="50" height="50" relative="1" as="geometry">
            <mxPoint x="102.52" y="-249" as="sourcePoint" />
            <mxPoint x="102.52" y="-309" as="targetPoint" />
          </mxGeometry>
        </mxCell>
        <mxCell id="p5pKZvlz4i5NCOuKB2SX-9" value="&lt;font style=&quot;font-size: 20px;&quot;&gt;1&lt;/font&gt;" style="text;html=1;align=center;verticalAlign=middle;whiteSpace=wrap;rounded=0;" vertex="1" parent="1">
          <mxGeometry x="16" y="99" width="60" height="30" as="geometry" />
        </mxCell>
        <mxCell id="p5pKZvlz4i5NCOuKB2SX-10" value="&lt;font style=&quot;font-size: 20px;&quot;&gt;2&lt;/font&gt;" style="text;html=1;align=center;verticalAlign=middle;whiteSpace=wrap;rounded=0;" vertex="1" parent="1">
          <mxGeometry x="139" y="99" width="60" height="30" as="geometry" />
        </mxCell>
        <mxCell id="p5pKZvlz4i5NCOuKB2SX-12" style="edgeStyle=none;curved=1;rounded=0;orthogonalLoop=1;jettySize=auto;html=1;entryX=1;entryY=0.5;entryDx=0;entryDy=0;fontSize=16;startSize=8;endSize=8;" edge="1" parent="1">
          <mxGeometry relative="1" as="geometry">
            <mxPoint x="416" y="88" as="sourcePoint" />
            <mxPoint x="416" y="88" as="targetPoint" />
          </mxGeometry>
        </mxCell>
        <mxCell id="p5pKZvlz4i5NCOuKB2SX-13" value="&lt;font style=&quot;font-size: 20px;&quot;&gt;B&lt;/font&gt;" style="ellipse;whiteSpace=wrap;html=1;fontSize=16;fillColor=#f5f5f5;fontColor=#333333;strokeColor=#666666;" vertex="1" parent="1">
          <mxGeometry x="455" y="-143" width="60" height="60" as="geometry" />
        </mxCell>
        <mxCell id="p5pKZvlz4i5NCOuKB2SX-14" value="" style="ellipse;whiteSpace=wrap;html=1;fontSize=16;fillColor=#f8cecc;strokeColor=#b85450;" vertex="1" parent="1">
          <mxGeometry x="398" y="-22" width="60" height="60" as="geometry" />
        </mxCell>
        <mxCell id="p5pKZvlz4i5NCOuKB2SX-15" value="" style="edgeStyle=none;curved=1;rounded=0;orthogonalLoop=1;jettySize=auto;html=1;fontSize=16;startSize=8;endSize=8;endArrow=none;endFill=0;entryX=0.5;entryY=0;entryDx=0;entryDy=0;" edge="1" source="p5pKZvlz4i5NCOuKB2SX-13" target="p5pKZvlz4i5NCOuKB2SX-14" parent="1">
          <mxGeometry relative="1" as="geometry">
            <mxPoint x="629" y="-90" as="sourcePoint" />
            <mxPoint x="428" y="-41" as="targetPoint" />
          </mxGeometry>
        </mxCell>
        <mxCell id="p5pKZvlz4i5NCOuKB2SX-16" value="" style="ellipse;whiteSpace=wrap;html=1;fontSize=16;fillColor=#f8cecc;strokeColor=#b85450;" vertex="1" parent="1">
          <mxGeometry x="455" y="-249" width="60" height="60" as="geometry" />
        </mxCell>
        <mxCell id="p5pKZvlz4i5NCOuKB2SX-17" value="" style="edgeStyle=none;curved=1;rounded=0;orthogonalLoop=1;jettySize=auto;html=1;fontSize=16;startSize=8;endSize=8;endArrow=none;endFill=0;" edge="1" source="p5pKZvlz4i5NCOuKB2SX-16" target="p5pKZvlz4i5NCOuKB2SX-13" parent="1">
          <mxGeometry relative="1" as="geometry">
            <mxPoint x="479" y="-71" as="sourcePoint" />
            <mxPoint x="451" y="-28" as="targetPoint" />
          </mxGeometry>
        </mxCell>
        <mxCell id="p5pKZvlz4i5NCOuKB2SX-18" value="" style="ellipse;whiteSpace=wrap;html=1;fontSize=16;fillColor=#f8cecc;strokeColor=#b85450;" vertex="1" parent="1">
          <mxGeometry x="521" y="-22" width="60" height="60" as="geometry" />
        </mxCell>
        <mxCell id="p5pKZvlz4i5NCOuKB2SX-19" value="" style="edgeStyle=none;curved=1;rounded=0;orthogonalLoop=1;jettySize=auto;html=1;fontSize=16;startSize=8;endSize=8;endArrow=none;endFill=0;entryX=0.5;entryY=0;entryDx=0;entryDy=0;" edge="1" source="p5pKZvlz4i5NCOuKB2SX-13" target="p5pKZvlz4i5NCOuKB2SX-18" parent="1">
          <mxGeometry relative="1" as="geometry">
            <mxPoint x="480" y="-70" as="sourcePoint" />
            <mxPoint x="453" y="-27" as="targetPoint" />
          </mxGeometry>
        </mxCell>
        <mxCell id="p5pKZvlz4i5NCOuKB2SX-20" value="&lt;font style=&quot;font-size: 20px;&quot;&gt;A&lt;/font&gt;" style="ellipse;whiteSpace=wrap;html=1;fontSize=16;fillColor=#f5f5f5;fontColor=#333333;strokeColor=#666666;" vertex="1" parent="1">
          <mxGeometry x="568" y="-143" width="60" height="60" as="geometry" />
        </mxCell>
        <mxCell id="p5pKZvlz4i5NCOuKB2SX-21" value="" style="edgeStyle=none;curved=1;rounded=0;orthogonalLoop=1;jettySize=auto;html=1;fontSize=16;startSize=8;endSize=8;endArrow=none;endFill=0;exitX=1;exitY=0;exitDx=0;exitDy=0;entryX=0.5;entryY=1;entryDx=0;entryDy=0;" edge="1" source="p5pKZvlz4i5NCOuKB2SX-14" target="p5pKZvlz4i5NCOuKB2SX-20" parent="1">
          <mxGeometry relative="1" as="geometry">
            <mxPoint x="460" y="-79" as="sourcePoint" />
            <mxPoint x="556" y="-78" as="targetPoint" />
          </mxGeometry>
        </mxCell>
        <mxCell id="p5pKZvlz4i5NCOuKB2SX-22" value="" style="edgeStyle=none;curved=1;rounded=0;orthogonalLoop=1;jettySize=auto;html=1;fontSize=16;startSize=8;endSize=8;endArrow=none;endFill=0;entryX=0.5;entryY=0;entryDx=0;entryDy=0;" edge="1" source="p5pKZvlz4i5NCOuKB2SX-16" target="p5pKZvlz4i5NCOuKB2SX-20" parent="1">
          <mxGeometry relative="1" as="geometry">
            <mxPoint x="481" y="-182" as="sourcePoint" />
            <mxPoint x="452" y="-127" as="targetPoint" />
          </mxGeometry>
        </mxCell>
        <mxCell id="p5pKZvlz4i5NCOuKB2SX-23" value="" style="edgeStyle=none;curved=1;rounded=0;orthogonalLoop=1;jettySize=auto;html=1;fontSize=16;startSize=8;endSize=8;endArrow=none;endFill=0;entryX=1;entryY=0;entryDx=0;entryDy=0;exitX=0.5;exitY=1;exitDx=0;exitDy=0;" edge="1" source="p5pKZvlz4i5NCOuKB2SX-20" target="p5pKZvlz4i5NCOuKB2SX-18" parent="1">
          <mxGeometry relative="1" as="geometry">
            <mxPoint x="460" y="-79" as="sourcePoint" />
            <mxPoint x="539" y="-3" as="targetPoint" />
          </mxGeometry>
        </mxCell>
        <mxCell id="p5pKZvlz4i5NCOuKB2SX-24" value="&lt;font style=&quot;font-size: 20px;&quot;&gt;C&lt;/font&gt;" style="ellipse;whiteSpace=wrap;html=1;fontSize=16;fillColor=#f5f5f5;fontColor=#333333;strokeColor=#666666;" vertex="1" parent="1">
          <mxGeometry x="342" y="-143" width="60" height="60" as="geometry" />
        </mxCell>
        <mxCell id="p5pKZvlz4i5NCOuKB2SX-25" value="" style="edgeStyle=none;curved=1;rounded=0;orthogonalLoop=1;jettySize=auto;html=1;fontSize=16;startSize=8;endSize=8;endArrow=none;endFill=0;exitX=0;exitY=1;exitDx=0;exitDy=0;entryX=0.5;entryY=0;entryDx=0;entryDy=0;" edge="1" source="p5pKZvlz4i5NCOuKB2SX-16" target="p5pKZvlz4i5NCOuKB2SX-24" parent="1">
          <mxGeometry relative="1" as="geometry">
            <mxPoint x="517" y="-188" as="sourcePoint" />
            <mxPoint x="586" y="-123" as="targetPoint" />
          </mxGeometry>
        </mxCell>
        <mxCell id="p5pKZvlz4i5NCOuKB2SX-26" value="" style="edgeStyle=none;curved=1;rounded=0;orthogonalLoop=1;jettySize=auto;html=1;fontSize=16;startSize=8;endSize=8;endArrow=none;endFill=0;exitX=0.5;exitY=1;exitDx=0;exitDy=0;entryX=0;entryY=0;entryDx=0;entryDy=0;" edge="1" source="p5pKZvlz4i5NCOuKB2SX-24" target="p5pKZvlz4i5NCOuKB2SX-14" parent="1">
          <mxGeometry relative="1" as="geometry">
            <mxPoint x="482" y="-76" as="sourcePoint" />
            <mxPoint x="451" y="-9" as="targetPoint" />
          </mxGeometry>
        </mxCell>
        <mxCell id="p5pKZvlz4i5NCOuKB2SX-27" value="" style="edgeStyle=none;curved=1;rounded=0;orthogonalLoop=1;jettySize=auto;html=1;fontSize=16;startSize=8;endSize=8;endArrow=none;endFill=0;exitX=0;exitY=0;exitDx=0;exitDy=0;entryX=0.5;entryY=1;entryDx=0;entryDy=0;" edge="1" source="p5pKZvlz4i5NCOuKB2SX-18" target="p5pKZvlz4i5NCOuKB2SX-24" parent="1">
          <mxGeometry relative="1" as="geometry">
            <mxPoint x="459" y="-3" as="sourcePoint" />
            <mxPoint x="583" y="-86" as="targetPoint" />
          </mxGeometry>
        </mxCell>
        <mxCell id="p5pKZvlz4i5NCOuKB2SX-28" value="" style="endArrow=classic;html=1;rounded=0;entryX=0.5;entryY=1;entryDx=0;entryDy=0;exitX=0.5;exitY=0;exitDx=0;exitDy=0;" edge="1" target="p5pKZvlz4i5NCOuKB2SX-14" parent="1" source="p5pKZvlz4i5NCOuKB2SX-31">
          <mxGeometry width="50" height="50" relative="1" as="geometry">
            <mxPoint x="428" y="98" as="sourcePoint" />
            <mxPoint x="468" y="65" as="targetPoint" />
            <Array as="points" />
          </mxGeometry>
        </mxCell>
        <mxCell id="p5pKZvlz4i5NCOuKB2SX-29" value="" style="endArrow=classic;html=1;rounded=0;entryX=0.5;entryY=1;entryDx=0;entryDy=0;exitX=0.5;exitY=0;exitDx=0;exitDy=0;" edge="1" target="p5pKZvlz4i5NCOuKB2SX-18" parent="1" source="p5pKZvlz4i5NCOuKB2SX-32">
          <mxGeometry width="50" height="50" relative="1" as="geometry">
            <mxPoint x="550.52" y="98" as="sourcePoint" />
            <mxPoint x="550.52" y="38" as="targetPoint" />
          </mxGeometry>
        </mxCell>
        <mxCell id="p5pKZvlz4i5NCOuKB2SX-30" value="" style="endArrow=classic;html=1;rounded=0;entryX=0.5;entryY=1;entryDx=0;entryDy=0;exitX=0.5;exitY=0;exitDx=0;exitDy=0;" edge="1" source="p5pKZvlz4i5NCOuKB2SX-16" parent="1" target="p5pKZvlz4i5NCOuKB2SX-33">
          <mxGeometry width="50" height="50" relative="1" as="geometry">
            <mxPoint x="484.52" y="-249" as="sourcePoint" />
            <mxPoint x="484.52" y="-309" as="targetPoint" />
          </mxGeometry>
        </mxCell>
        <mxCell id="p5pKZvlz4i5NCOuKB2SX-31" value="&lt;font style=&quot;font-size: 20px;&quot;&gt;1&lt;/font&gt;" style="text;html=1;align=center;verticalAlign=middle;whiteSpace=wrap;rounded=0;" vertex="1" parent="1">
          <mxGeometry x="398" y="99" width="60" height="30" as="geometry" />
        </mxCell>
        <mxCell id="p5pKZvlz4i5NCOuKB2SX-32" value="&lt;font style=&quot;font-size: 20px;&quot;&gt;2&lt;/font&gt;" style="text;html=1;align=center;verticalAlign=middle;whiteSpace=wrap;rounded=0;" vertex="1" parent="1">
          <mxGeometry x="521" y="99" width="60" height="30" as="geometry" />
        </mxCell>
        <mxCell id="p5pKZvlz4i5NCOuKB2SX-33" value="&lt;font style=&quot;font-size: 20px;&quot;&gt;3&lt;/font&gt;" style="text;html=1;align=center;verticalAlign=middle;whiteSpace=wrap;rounded=0;" vertex="1" parent="1">
          <mxGeometry x="455" y="-343" width="60" height="30" as="geometry" />
        </mxCell>
        <mxCell id="p5pKZvlz4i5NCOuKB2SX-34" value="&lt;div align=&quot;right&quot;&gt;&lt;font style=&quot;font-size: 25px;&quot;&gt;&amp;nbsp;[A B C]&lt;/font&gt;&lt;/div&gt;&lt;div align=&quot;right&quot;&gt;&lt;font style=&quot;font-size: 25px;&quot;&gt;x&amp;nbsp; [C B A]&lt;/font&gt;&lt;/div&gt;&lt;div align=&quot;right&quot;&gt;&lt;br&gt;&lt;/div&gt;&lt;div align=&quot;right&quot;&gt;&lt;font style=&quot;font-size: 25px;&quot;&gt;[A B A]&lt;br&gt;[C B C]&lt;/font&gt;&lt;/div&gt;" style="text;html=1;align=right;verticalAlign=middle;whiteSpace=wrap;rounded=0;" vertex="1" parent="1">
          <mxGeometry x="267" y="152" width="114" height="131" as="geometry" />
        </mxCell>
        <mxCell id="p5pKZvlz4i5NCOuKB2SX-35" value="" style="endArrow=none;html=1;rounded=0;" edge="1" parent="1">
          <mxGeometry width="50" height="50" relative="1" as="geometry">
            <mxPoint x="459" y="221" as="sourcePoint" />
            <mxPoint x="84" y="221" as="targetPoint" />
          </mxGeometry>
        </mxCell>
        <mxCell id="p5pKZvlz4i5NCOuKB2SX-36" value="&lt;font style=&quot;font-size: 25px;&quot;&gt;Crossover&lt;/font&gt;" style="text;html=1;align=center;verticalAlign=middle;whiteSpace=wrap;rounded=0;" vertex="1" parent="1">
          <mxGeometry x="85" y="171" width="184" height="30" as="geometry" />
        </mxCell>
        <mxCell id="p5pKZvlz4i5NCOuKB2SX-37" value="&lt;font style=&quot;font-size: 25px;&quot;&gt;Offspring&lt;/font&gt;" style="text;html=1;align=center;verticalAlign=middle;whiteSpace=wrap;rounded=0;" vertex="1" parent="1">
          <mxGeometry x="85" y="243" width="184" height="30" as="geometry" />
        </mxCell>
        <mxCell id="p5pKZvlz4i5NCOuKB2SX-39" value="&lt;font style=&quot;font-size: 20px;&quot;&gt;3&lt;/font&gt;" style="text;html=1;align=center;verticalAlign=middle;whiteSpace=wrap;rounded=0;" vertex="1" parent="1">
          <mxGeometry x="73" y="-343" width="60" height="30" as="geometry" />
        </mxCell>
      </root>
    </mxGraphModel>
  </diagram>
</mxfile>
